<svg width="37" height="42" viewBox="0 0 37 42" fill="none" xmlns="http://www.w3.org/2000/svg">
<path fill-rule="evenodd" clip-rule="evenodd" d="M17.8919 41.6534C18.1226 41.7739 18.3806 41.8352 18.6385 41.8332C18.8965 41.8312 19.1524 41.7678 19.3852 41.6452L26.8183 37.6718C28.9261 36.5481 30.5768 35.2917 31.8645 33.829C34.6645 30.642 36.1935 26.5746 36.1663 22.3805L36.0782 8.54576C36.0698 6.95227 35.0232 5.5304 33.4753 5.01354L19.6474 0.374051C18.8147 0.0921276 17.9023 0.0982564 17.0844 0.388352L3.30884 5.19331C1.76937 5.7306 0.741662 7.16269 0.750051 8.75822L0.838141 22.5827C0.865406 26.783 2.44682 30.832 5.29296 33.9863C6.59333 35.4286 8.25864 36.6666 10.3896 37.7719L17.8919 41.6534ZM15.9243 25.3932C16.2347 25.6915 16.6374 25.8386 17.0401 25.8345C17.4428 25.8325 17.8434 25.6813 18.1496 25.3789L26.2727 17.3707C26.8831 16.768 26.8768 15.7996 26.2601 15.2052C25.6414 14.6107 24.6452 14.6147 24.0348 15.2174L17.017 22.1348L14.1436 19.3727C13.5249 18.7782 12.5307 18.7844 11.9183 19.387C11.308 19.9897 11.3143 20.958 11.933 21.5525L15.9243 25.3932Z" fill="#FDC886"/>
</svg>
