<svg width="36" height="38" viewBox="0 0 36 38" fill="none" xmlns="http://www.w3.org/2000/svg">
<g filter="url(#filter0_d_3_322)">
<path d="M14.2326 27.4289V23.0972C14.2326 21.9914 15.1356 21.095 16.2494 21.095H20.3212C20.8561 21.095 21.3691 21.3059 21.7473 21.6814C22.1256 22.0569 22.338 22.5662 22.338 23.0972V27.4289C22.3347 27.8887 22.5163 28.3307 22.8425 28.657C23.1688 28.9832 23.6127 29.1667 24.0758 29.1667H26.8538C28.1511 29.17 29.3966 28.6607 30.3152 27.7512C31.2337 26.8416 31.75 25.6066 31.75 24.3186V11.9781C31.75 10.9377 31.2854 9.95082 30.4815 9.28332L21.0315 1.79086C19.3877 0.47717 17.0324 0.519585 15.4376 1.89159L6.20327 9.28332C5.36138 9.93114 4.8582 10.9209 4.83333 11.9781V24.306C4.83333 26.9905 7.02546 29.1667 9.72958 29.1667H12.4441C13.4059 29.1667 14.1876 28.3963 14.1945 27.4415L14.2326 27.4289Z" fill="#5A4FCF"/>
</g>
<defs>
<filter id="filter0_d_3_322" x="0.833332" y="0.833374" width="34.9167" height="36.3334" filterUnits="userSpaceOnUse" color-interpolation-filters="sRGB">
<feFlood flood-opacity="0" result="BackgroundImageFix"/>
<feColorMatrix in="SourceAlpha" type="matrix" values="0 0 0 0 0 0 0 0 0 0 0 0 0 0 0 0 0 0 127 0" result="hardAlpha"/>
<feOffset dy="4"/>
<feGaussianBlur stdDeviation="2"/>
<feComposite in2="hardAlpha" operator="out"/>
<feColorMatrix type="matrix" values="0 0 0 0 0 0 0 0 0 0 0 0 0 0 0 0 0 0 0.25 0"/>
<feBlend mode="normal" in2="BackgroundImageFix" result="effect1_dropShadow_3_322"/>
<feBlend mode="normal" in="SourceGraphic" in2="effect1_dropShadow_3_322" result="shape"/>
</filter>
</defs>
</svg>
